<svg width="87" height="88" viewBox="0 0 87 88" fill="none" xmlns="http://www.w3.org/2000/svg">
<g filter="url(#filter0_d_176_1303)">
<circle cx="43.7843" cy="39.913" r="39.1544" fill="#1E9CEF"/>
<path d="M36.4144 37.8333H53.0811V42H36.4144V37.8333ZM40.5811 54.5H32.2477V21.1667H46.8311V31.5833H57.2477V38.0417L61.4144 33.875V29.5L48.9144 17H32.2477C31.1427 17 30.0828 17.439 29.3014 18.2204C28.52 19.0018 28.0811 20.0616 28.0811 21.1667V54.5C28.0811 55.6051 28.52 56.6649 29.3014 57.4463C30.0828 58.2277 31.1427 58.6667 32.2477 58.6667H40.5811V54.5ZM36.4144 50.3333H44.9561L46.8311 48.4583V46.1667H36.4144V50.3333ZM61.8311 39.9167C62.0394 39.9167 62.4561 40.125 62.6644 40.3333L65.3727 43.0417C65.7894 43.4583 65.7894 44.2917 65.3727 44.7083L63.2894 46.7917L58.9144 42.4167L60.9977 40.3333C61.2061 40.125 61.4144 39.9167 61.8311 39.9167ZM61.8311 48.0417L49.1227 60.75H44.7477V56.375L57.4561 43.6667L61.8311 48.0417Z" fill="#EDF9FF"/>
</g>
<defs>
<filter id="filter0_d_176_1303" x="0.629883" y="0.758545" width="86.3086" height="86.3088" filterUnits="userSpaceOnUse" color-interpolation-filters="sRGB">
<feFlood flood-opacity="0" result="BackgroundImageFix"/>
<feColorMatrix in="SourceAlpha" type="matrix" values="0 0 0 0 0 0 0 0 0 0 0 0 0 0 0 0 0 0 127 0" result="hardAlpha"/>
<feOffset dy="4"/>
<feGaussianBlur stdDeviation="2"/>
<feComposite in2="hardAlpha" operator="out"/>
<feColorMatrix type="matrix" values="0 0 0 0 0 0 0 0 0 0 0 0 0 0 0 0 0 0 0.25 0"/>
<feBlend mode="normal" in2="BackgroundImageFix" result="effect1_dropShadow_176_1303"/>
<feBlend mode="normal" in="SourceGraphic" in2="effect1_dropShadow_176_1303" result="shape"/>
</filter>
</defs>
</svg>
