<svg width="16" height="15" viewBox="0 0 16 15" fill="none" xmlns="http://www.w3.org/2000/svg">
<path d="M6.33333 8.33333H1.33333C1.11232 8.33333 0.900358 8.42113 0.744078 8.57741C0.587797 8.73369 0.5 8.94565 0.5 9.16667V14.1667C0.5 14.3877 0.587797 14.5996 0.744078 14.7559C0.900358 14.9122 1.11232 15 1.33333 15H6.33333C6.55435 15 6.76631 14.9122 6.92259 14.7559C7.07887 14.5996 7.16667 14.3877 7.16667 14.1667V9.16667C7.16667 8.94565 7.07887 8.73369 6.92259 8.57741C6.76631 8.42113 6.55435 8.33333 6.33333 8.33333ZM5.5 13.3333H2.16667V10H5.5V13.3333ZM14.6667 0H9.66667C9.44565 0 9.23369 0.0877973 9.07741 0.244078C8.92113 0.400358 8.83333 0.61232 8.83333 0.833333V5.83333C8.83333 6.05435 8.92113 6.26631 9.07741 6.42259C9.23369 6.57887 9.44565 6.66667 9.66667 6.66667H14.6667C14.8877 6.66667 15.0996 6.57887 15.2559 6.42259C15.4122 6.26631 15.5 6.05435 15.5 5.83333V0.833333C15.5 0.61232 15.4122 0.400358 15.2559 0.244078C15.0996 0.0877973 14.8877 0 14.6667 0ZM13.8333 5H10.5V1.66667H13.8333V5ZM14.6667 10.8333H13V9.16667C13 8.94565 12.9122 8.73369 12.7559 8.57741C12.5996 8.42113 12.3877 8.33333 12.1667 8.33333C11.9457 8.33333 11.7337 8.42113 11.5774 8.57741C11.4211 8.73369 11.3333 8.94565 11.3333 9.16667V10.8333H9.66667C9.44565 10.8333 9.23369 10.9211 9.07741 11.0774C8.92113 11.2337 8.83333 11.4457 8.83333 11.6667C8.83333 11.8877 8.92113 12.0996 9.07741 12.2559C9.23369 12.4122 9.44565 12.5 9.66667 12.5H11.3333V14.1667C11.3333 14.3877 11.4211 14.5996 11.5774 14.7559C11.7337 14.9122 11.9457 15 12.1667 15C12.3877 15 12.5996 14.9122 12.7559 14.7559C12.9122 14.5996 13 14.3877 13 14.1667V12.5H14.6667C14.8877 12.5 15.0996 12.4122 15.2559 12.2559C15.4122 12.0996 15.5 11.8877 15.5 11.6667C15.5 11.4457 15.4122 11.2337 15.2559 11.0774C15.0996 10.9211 14.8877 10.8333 14.6667 10.8333ZM6.33333 0H1.33333C1.11232 0 0.900358 0.0877973 0.744078 0.244078C0.587797 0.400358 0.5 0.61232 0.5 0.833333V5.83333C0.5 6.05435 0.587797 6.26631 0.744078 6.42259C0.900358 6.57887 1.11232 6.66667 1.33333 6.66667H6.33333C6.55435 6.66667 6.76631 6.57887 6.92259 6.42259C7.07887 6.26631 7.16667 6.05435 7.16667 5.83333V0.833333C7.16667 0.61232 7.07887 0.400358 6.92259 0.244078C6.76631 0.0877973 6.55435 0 6.33333 0ZM5.5 5H2.16667V1.66667H5.5V5Z" fill="#526581"/>
</svg>
