<svg width="29" height="29" viewBox="0 0 29 29" fill="none" xmlns="http://www.w3.org/2000/svg">
<g clip-path="url(#clip0_15_10957)">
<path fill-rule="evenodd" clip-rule="evenodd" d="M15.7082 15.7083C18.3775 15.7083 20.5415 17.8723 20.5415 20.5417V22.9583C20.5415 23.6257 20.0005 24.1667 19.3332 24.1667C18.6658 24.1667 18.1248 23.6257 18.1248 22.9583V20.5417C18.1248 19.2069 17.0429 18.125 15.7082 18.125H7.24984C5.91515 18.125 4.83317 19.2069 4.83317 20.5417V22.9583C4.83317 23.6257 4.29218 24.1667 3.62484 24.1667C2.9575 24.1667 2.4165 23.6257 2.4165 22.9583V20.5417C2.4165 17.8723 4.58046 15.7083 7.24984 15.7083H15.7082ZM22.9581 15.7086C24.9601 15.7086 26.5831 17.3316 26.5831 19.3336V21.7502C26.5831 22.4176 26.0421 22.9586 25.3747 22.9586C24.7075 22.9586 24.1664 22.4176 24.1664 21.7502V19.3336C24.1664 18.6663 23.6254 18.1252 22.9581 18.1252H21.2473C20.8269 17.1632 20.1633 16.3317 19.3341 15.7086H22.9581ZM11.479 3.625C14.4821 3.625 16.9165 6.05945 16.9165 9.0625C16.9165 12.0655 14.4821 14.5 11.479 14.5C8.47592 14.5 6.04148 12.0655 6.04148 9.0625C6.04148 6.05945 8.47592 3.625 11.479 3.625ZM21.7498 7.25C23.7519 7.25 25.3748 8.87297 25.3748 10.875C25.3748 12.8771 23.7519 14.5 21.7498 14.5C19.7478 14.5 18.1248 12.8771 18.1248 10.875C18.1248 8.87297 19.7478 7.25 21.7498 7.25ZM11.479 6.04167C9.81061 6.04167 8.45815 7.39414 8.45815 9.0625C8.45815 10.7309 9.81061 12.0833 11.479 12.0833C13.1474 12.0833 14.4998 10.7309 14.4998 9.0625C14.4998 7.39414 13.1474 6.04167 11.479 6.04167ZM21.7498 9.66667C21.0825 9.66667 20.5415 10.2077 20.5415 10.875C20.5415 11.5423 21.0825 12.0833 21.7498 12.0833C22.4172 12.0833 22.9582 11.5423 22.9582 10.875C22.9582 10.2077 22.4172 9.66667 21.7498 9.66667Z" fill="#1E9CEF"/>
</g>
<defs>
<clipPath id="clip0_15_10957">
<rect width="29" height="29" fill="white"/>
</clipPath>
</defs>
</svg>
