<svg width="443" height="610" viewBox="0 0 443 610" fill="none" xmlns="http://www.w3.org/2000/svg">
<g filter="url(#filter0_d_1175_7268)">
<path d="M427.123 186.771L217.536 110.488L130.687 349.104L340.274 425.387L427.123 186.771Z" fill="white"/>
<path d="M423.435 190.101L338.17 424.364L132.709 349.582L217.973 115.319L423.435 190.101ZM426.286 188.686L216.699 112.402L129.858 350.997L339.445 427.28L426.286 188.686Z" fill="#75C8FF"/>
<path d="M172.722 373.967L182.684 377.593" stroke="#1E9CEF" stroke-linecap="round" stroke-linejoin="round"/>
<path d="M164.615 371.017L169.369 372.747" stroke="#1E9CEF" stroke-linecap="round" stroke-linejoin="round"/>
<path d="M127.49 357.504L160.16 369.395" stroke="#1E9CEF" stroke-linecap="round" stroke-linejoin="round"/>
<path d="M389.817 158.222L385.073 156.495" stroke="#1E9CEF" stroke-linecap="round" stroke-linejoin="round"/>
<path d="M426.943 171.735L394.273 159.843" stroke="#1E9CEF" stroke-linecap="round" stroke-linejoin="round"/>
<path d="M225.095 105.38L424.379 177.913C425.747 178.411 426.851 179.459 427.448 180.826C428.046 182.193 428.088 183.768 427.565 185.204L422.135 200.124L212.538 123.837L217.968 108.917C218.491 107.481 219.535 106.301 220.872 105.638C222.208 104.975 223.727 104.882 225.095 105.38Z" fill="#75C8FF"/>
<path d="M256.019 123.771L225.648 112.717L223.208 119.419L253.579 130.473L256.019 123.771Z" fill="white"/>
<path d="M379.333 175.668L372.547 173.198L372.153 174.281L378.939 176.75L379.333 175.668Z" fill="white"/>
<path d="M413.501 182.23L412.493 182.73L415.458 189.515L416.466 189.014L413.501 182.23Z" fill="white"/>
<path d="M417.564 183.675L410.932 186.967L411.382 187.998L418.014 184.706L417.564 183.675Z" fill="white"/>
<path d="M399.909 177.245L392.834 180.757L393.284 181.788L400.36 178.276L399.909 177.245Z" fill="white"/>
<path d="M394.201 182.661L391.932 181.835L392.799 179.453L394.201 182.661Z" fill="white"/>
<path d="M398.743 176.504L401.012 177.329L400.145 179.711L398.743 176.504Z" fill="white"/>
<path d="M408.462 210.414L216.624 140.59L216.23 141.673L408.068 211.496L408.462 210.414Z" fill="#E0E0E0"/>
<path d="M403.257 224.716L211.418 154.893L211.024 155.976L402.863 225.799L403.257 224.716Z" fill="#E0E0E0"/>
<path d="M188.071 344.853L147.047 329.922C146.34 329.665 145.549 330.057 145.279 330.799L140.322 344.42C140.052 345.161 140.406 345.971 141.112 346.228L182.136 361.159C182.842 361.416 183.634 361.024 183.903 360.282L188.861 346.661C189.131 345.92 188.777 345.11 188.071 344.853Z" fill="#1E9CEF"/>
<path d="M291.168 174L214.39 146.055L212.817 150.375L289.596 178.32L291.168 174Z" fill="#263238"/>
<path d="M291.168 174L214.39 146.055L212.817 150.375L289.596 178.32L291.168 174Z" fill="#E0E0E0"/>
<path d="M239.489 172.074L208.963 160.964L207.391 165.284L237.916 176.395L239.489 172.074Z" fill="#E0E0E0"/>
<path d="M380.864 242.696L246.097 193.645L244.524 197.965L379.292 247.016L380.864 242.696Z" fill="#E0E0E0"/>
<path d="M378.224 249.951L212.642 189.684L211.069 194.004L376.652 254.271L378.224 249.951Z" fill="#E0E0E0"/>
<path d="M259.121 214.816L210.001 196.938L208.429 201.258L257.549 219.136L259.121 214.816Z" fill="#E0E0E0"/>
<path d="M240.345 139.463L219.544 131.892L217.972 136.212L238.773 143.783L240.345 139.463Z" fill="#263238"/>
<path d="M240.345 139.463L219.544 131.892L217.972 136.212L238.773 143.783L240.345 139.463Z" fill="#E0E0E0"/>
<path d="M184.257 351.031L180.37 352.951L178.627 348.981L184.257 351.031Z" fill="white"/>
<path d="M177.577 343.78L176.546 343.405L172.376 354.86L173.407 355.236L177.577 343.78Z" fill="white"/>
<path d="M200.227 357.628L193.307 355.109L190.663 362.375L197.583 364.893L200.227 357.628Z" fill="#263238"/>
<path d="M209.922 361.156L203.002 358.638L200.358 365.903L207.278 368.422L209.922 361.156Z" fill="#263238"/>
<path d="M219.615 364.685L212.696 362.166L210.051 369.431L216.971 371.95L219.615 364.685Z" fill="#263238"/>
<path d="M229.32 368.217L222.4 365.698L219.756 372.964L226.676 375.482L229.32 368.217Z" fill="#263238"/>
<path d="M239.015 371.745L232.095 369.227L229.45 376.492L236.37 379.011L239.015 371.745Z" fill="#263238"/>
<path d="M248.708 375.273L241.788 372.755L239.144 380.02L246.064 382.539L248.708 375.273Z" fill="#263238"/>
<path d="M258.402 378.802L251.482 376.283L248.838 383.548L255.758 386.067L258.402 378.802Z" fill="#263238"/>
<path d="M268.096 382.33L261.176 379.811L258.532 387.077L265.452 389.595L268.096 382.33Z" fill="#263238"/>
<path opacity="0.5" d="M200.227 357.628L193.307 355.109L190.663 362.375L197.583 364.893L200.227 357.628Z" fill="white"/>
<path opacity="0.5" d="M209.922 361.156L203.002 358.638L200.358 365.903L207.278 368.422L209.922 361.156Z" fill="white"/>
<path opacity="0.5" d="M219.615 364.685L212.696 362.166L210.051 369.431L216.971 371.95L219.615 364.685Z" fill="white"/>
<path opacity="0.5" d="M229.32 368.217L222.4 365.698L219.756 372.964L226.676 375.482L229.32 368.217Z" fill="white"/>
<path opacity="0.5" d="M239.015 371.745L232.095 369.227L229.45 376.492L236.37 379.011L239.015 371.745Z" fill="white"/>
<path opacity="0.5" d="M248.708 375.273L241.788 372.755L239.144 380.02L246.064 382.539L248.708 375.273Z" fill="white"/>
<path opacity="0.5" d="M258.402 378.802L251.482 376.283L248.838 383.548L255.758 386.067L258.402 378.802Z" fill="white"/>
<path opacity="0.5" d="M268.096 382.33L261.176 379.811L258.532 387.077L265.452 389.595L268.096 382.33Z" fill="white"/>
<path d="M337.14 407.46L330.221 404.941L327.576 412.207L334.496 414.725L337.14 407.46Z" fill="#263238"/>
<path opacity="0.5" d="M337.14 407.46L330.221 404.941L327.576 412.207L334.496 414.725L337.14 407.46Z" fill="white"/>
<path d="M322.696 402.51C322.608 402.752 322.453 402.964 322.251 403.119C322.05 403.274 321.81 403.364 321.563 403.379C321.316 403.393 321.072 403.331 320.863 403.201C320.655 403.07 320.49 402.877 320.39 402.646C320.29 402.414 320.26 402.155 320.302 401.901C320.345 401.647 320.459 401.41 320.631 401.219C320.802 401.029 321.022 400.893 321.263 400.83C321.505 400.767 321.757 400.78 321.987 400.866C322.139 400.922 322.279 401.008 322.397 401.121C322.515 401.234 322.61 401.371 322.676 401.524C322.742 401.677 322.778 401.842 322.782 402.012C322.785 402.181 322.756 402.35 322.696 402.51Z" fill="#263238"/>
<path d="M321.361 406.18C321.274 406.424 321.121 406.637 320.92 406.794C320.718 406.95 320.479 407.043 320.231 407.059C319.984 407.075 319.74 407.015 319.53 406.885C319.32 406.756 319.154 406.563 319.052 406.332C318.951 406.101 318.92 405.841 318.962 405.586C319.004 405.332 319.118 405.094 319.289 404.902C319.46 404.711 319.68 404.575 319.922 404.512C320.164 404.448 320.416 404.461 320.647 404.547C320.951 404.661 321.197 404.896 321.33 405.201C321.464 405.507 321.475 405.858 321.361 406.18Z" fill="#263238"/>
<path d="M320.02 409.861C319.932 410.104 319.777 410.316 319.576 410.471C319.374 410.625 319.134 410.715 318.887 410.73C318.64 410.745 318.396 410.683 318.188 410.552C317.979 410.422 317.814 410.229 317.714 409.997C317.614 409.766 317.584 409.507 317.627 409.253C317.669 408.999 317.784 408.761 317.955 408.571C318.126 408.38 318.346 408.245 318.587 408.182C318.829 408.119 319.081 408.131 319.311 408.218C319.463 408.273 319.603 408.36 319.721 408.473C319.84 408.585 319.935 408.722 320 408.875C320.066 409.028 320.102 409.194 320.106 409.363C320.109 409.532 320.08 409.702 320.02 409.861Z" fill="#263238"/>
<g opacity="0.5">
<path d="M322.696 402.51C322.608 402.752 322.453 402.964 322.251 403.119C322.05 403.274 321.81 403.364 321.563 403.379C321.316 403.393 321.072 403.331 320.863 403.201C320.655 403.07 320.49 402.877 320.39 402.646C320.29 402.414 320.26 402.155 320.302 401.901C320.345 401.647 320.459 401.41 320.631 401.219C320.802 401.029 321.022 400.893 321.263 400.83C321.505 400.767 321.757 400.78 321.987 400.866C322.139 400.922 322.279 401.008 322.397 401.121C322.515 401.234 322.61 401.371 322.676 401.524C322.742 401.677 322.778 401.842 322.782 402.012C322.785 402.181 322.756 402.35 322.696 402.51Z" fill="white"/>
<path d="M321.36 406.18C321.274 406.424 321.121 406.637 320.919 406.794C320.718 406.95 320.479 407.043 320.231 407.059C319.984 407.075 319.739 407.015 319.529 406.885C319.319 406.756 319.153 406.563 319.052 406.332C318.951 406.101 318.92 405.841 318.962 405.586C319.004 405.332 319.118 405.094 319.289 404.902C319.46 404.711 319.68 404.575 319.922 404.512C320.164 404.448 320.416 404.461 320.647 404.547C320.951 404.661 321.197 404.896 321.33 405.201C321.464 405.507 321.475 405.858 321.36 406.18Z" fill="white"/>
<path d="M320.02 409.862C319.932 410.104 319.777 410.316 319.575 410.471C319.374 410.625 319.134 410.716 318.887 410.73C318.64 410.745 318.396 410.683 318.187 410.552C317.979 410.422 317.814 410.229 317.714 409.997C317.614 409.766 317.584 409.507 317.626 409.253C317.669 408.999 317.783 408.762 317.955 408.571C318.126 408.38 318.346 408.245 318.587 408.182C318.829 408.119 319.081 408.132 319.311 408.218C319.463 408.273 319.603 408.36 319.721 408.473C319.839 408.586 319.934 408.722 320 408.875C320.066 409.028 320.102 409.194 320.106 409.363C320.109 409.533 320.08 409.702 320.02 409.862Z" fill="white"/>
</g>
<path d="M147.098 342.006L147.967 341.096C148.392 341.723 148.992 342.198 149.69 342.459C150.504 342.755 150.937 342.594 151.079 342.204C151.504 341.035 147.758 340.578 148.597 338.272C148.991 337.189 150.121 336.62 151.813 337.235C152.543 337.479 153.187 337.93 153.674 338.538L152.857 339.467C152.472 338.978 151.968 338.605 151.395 338.383C150.58 338.087 150.142 338.295 150.001 338.685C149.583 339.833 153.325 340.3 152.494 342.584C152.1 343.667 150.963 344.222 149.272 343.606C148.4 343.321 147.641 342.763 147.098 342.006Z" fill="white"/>
<path d="M157.843 344.347L154.389 343.09C154.35 343.415 154.426 343.74 154.602 344.005C154.779 344.27 155.043 344.456 155.348 344.53C155.556 344.615 155.779 344.655 156.005 344.647C156.231 344.638 156.455 344.582 156.662 344.481L157.071 345.538C156.733 345.716 156.364 345.815 155.989 345.829C155.615 345.843 155.244 345.772 154.904 345.62C154.564 345.535 154.247 345.377 153.973 345.155C153.699 344.934 153.474 344.654 153.314 344.333C153.153 344.013 153.06 343.659 153.041 343.294C153.021 342.929 153.076 342.562 153.2 342.216C153.317 341.881 153.497 341.573 153.731 341.31C153.965 341.047 154.246 340.834 154.559 340.686C154.871 340.538 155.207 340.456 155.547 340.447C155.886 340.438 156.222 340.501 156.533 340.633C156.854 340.731 157.149 340.898 157.401 341.123C157.652 341.349 157.853 341.628 157.992 341.943C158.13 342.258 158.203 342.601 158.204 342.951C158.206 343.302 158.137 343.651 158.002 343.976C157.963 344.084 157.897 344.232 157.843 344.347ZM154.664 342.27L156.912 343.089C156.961 342.796 156.912 342.498 156.771 342.245C156.631 341.993 156.409 341.801 156.142 341.705C155.876 341.608 155.583 341.611 155.313 341.715C155.043 341.818 154.814 342.014 154.664 342.27Z" fill="white"/>
<path d="M163.661 345.692L162.664 348.432L161.344 347.951L162.266 345.417C162.546 344.649 162.32 344.211 161.732 343.997C161.144 343.783 160.489 344.01 160.17 344.887L159.307 347.259L157.987 346.778L159.732 341.982L161.001 342.443L160.796 343.006C161.067 342.866 161.362 342.787 161.661 342.773C161.96 342.759 162.256 342.811 162.53 342.926C162.797 343.004 163.042 343.141 163.249 343.329C163.455 343.517 163.618 343.751 163.726 344.015C163.834 344.279 163.884 344.566 163.873 344.855C163.861 345.145 163.789 345.431 163.661 345.692Z" fill="white"/>
<path d="M170.986 343.92L168.582 350.524L167.324 350.067L167.513 349.547C167.26 349.693 166.98 349.778 166.694 349.795C166.409 349.812 166.125 349.761 165.865 349.646C165.285 349.388 164.828 348.907 164.587 348.301C164.346 347.696 164.338 347.01 164.566 346.384C164.794 345.757 165.24 345.237 165.815 344.928C166.389 344.619 167.048 344.544 167.658 344.719C167.916 344.798 168.153 344.935 168.352 345.119C168.55 345.304 168.707 345.532 168.811 345.789L169.654 343.472L170.986 343.92ZM168.164 347.662C168.235 347.416 168.236 347.156 168.167 346.914C168.098 346.672 167.961 346.459 167.774 346.3C167.587 346.141 167.357 346.044 167.113 346.021C166.87 345.998 166.623 346.05 166.402 346.169C166.182 346.289 165.999 346.472 165.874 346.696C165.75 346.92 165.69 347.174 165.703 347.428C165.715 347.682 165.799 347.925 165.943 348.126C166.088 348.326 166.288 348.477 166.518 348.559C166.679 348.618 166.851 348.642 167.023 348.628C167.196 348.614 167.364 348.564 167.519 348.48C167.674 348.395 167.811 348.279 167.922 348.139C168.033 347.998 168.115 347.836 168.164 347.662Z" fill="white"/>
<path d="M386.047 194.763C386.28 194.22 386.66 193.755 387.139 193.426C387.618 193.098 388.176 192.92 388.742 192.916C389.308 192.911 389.858 193.08 390.322 193.401C390.787 193.722 391.145 194.181 391.354 194.72L390.375 195.161C390.296 194.915 390.163 194.692 389.987 194.509C389.811 194.326 389.596 194.188 389.359 194.104C388.969 194.034 388.563 194.11 388.214 194.32C387.865 194.53 387.596 194.86 387.453 195.25C387.311 195.64 387.306 196.066 387.438 196.451C387.571 196.836 387.832 197.156 388.176 197.353C388.413 197.442 388.667 197.473 388.921 197.445C389.174 197.416 389.42 197.327 389.639 197.186L390.104 198.152C389.599 198.432 389.03 198.553 388.469 198.501C387.907 198.449 387.378 198.226 386.947 197.86C386.517 197.494 386.203 197.001 386.046 196.443C385.889 195.884 385.895 195.285 386.063 194.72L386.047 194.763Z" fill="#263238"/>
<path d="M390.781 197.16C390.882 196.882 391.036 196.626 391.234 196.408C391.432 196.19 391.67 196.016 391.933 195.896C392.196 195.775 392.478 195.711 392.762 195.708C393.046 195.704 393.326 195.761 393.584 195.876C393.939 195.973 394.253 196.179 394.488 196.467C394.722 196.756 394.865 197.114 394.899 197.494L393.88 197.663C393.861 197.47 393.79 197.289 393.675 197.139C393.56 196.988 393.407 196.876 393.231 196.814C392.958 196.714 392.654 196.733 392.386 196.866C392.119 196.998 391.91 197.234 391.806 197.521C391.701 197.808 391.71 198.123 391.829 198.397C391.949 198.67 392.169 198.88 392.443 198.979C392.617 199.045 392.807 199.057 392.992 199.016C393.176 198.975 393.347 198.881 393.486 198.746L394.158 199.53C393.885 199.795 393.546 199.973 393.182 200.041C392.819 200.109 392.447 200.065 392.114 199.914C391.846 199.836 391.597 199.702 391.383 199.52C391.169 199.337 390.994 199.11 390.869 198.853C390.745 198.595 390.672 198.313 390.657 198.022C390.642 197.731 390.684 197.438 390.781 197.16Z" fill="#263238"/>
<path d="M402.382 202.058C402.059 202.945 401.203 203.21 399.914 202.741L397.388 201.822L399.256 196.689L401.648 197.56C402.865 198.003 403.301 198.763 403.01 199.564C402.925 199.789 402.782 199.987 402.598 200.136C402.414 200.286 402.195 200.38 401.966 200.41C402.21 200.586 402.385 200.847 402.461 201.147C402.537 201.448 402.509 201.769 402.382 202.058ZM400.057 197.986L399.615 199.199L400.739 199.608C401.286 199.807 401.67 199.714 401.816 199.313C401.962 198.913 401.727 198.594 401.181 198.395L400.057 197.986ZM401.285 201.511C401.442 201.078 401.208 200.76 400.62 200.546L399.3 200.065L398.839 201.332L400.159 201.812C400.755 202.005 401.131 201.933 401.293 201.489L401.285 201.511Z" fill="#263238"/>
<path d="M403.104 201.646C403.205 201.367 403.36 201.111 403.558 200.893C403.756 200.676 403.994 200.501 404.257 200.381C404.519 200.26 404.802 200.196 405.086 200.193C405.37 200.19 405.65 200.247 405.908 200.361C406.263 200.456 406.579 200.662 406.813 200.951C407.048 201.24 407.19 201.599 407.222 201.98L406.203 202.148C406.187 201.955 406.117 201.772 406.002 201.621C405.887 201.471 405.732 201.359 405.555 201.299C405.281 201.2 404.977 201.218 404.71 201.351C404.443 201.484 404.234 201.719 404.129 202.007C404.025 202.294 404.033 202.609 404.153 202.882C404.272 203.156 404.493 203.365 404.767 203.465C404.941 203.533 405.131 203.547 405.316 203.505C405.501 203.464 405.672 203.369 405.809 203.231L406.481 204.015C406.21 204.281 405.87 204.46 405.506 204.529C405.142 204.597 404.771 204.552 404.438 204.4C404.169 204.322 403.92 204.188 403.706 204.005C403.492 203.823 403.318 203.596 403.193 203.338C403.068 203.081 402.996 202.798 402.981 202.507C402.966 202.216 403.008 201.923 403.104 201.646Z" fill="#263238"/>
<path d="M407.188 203.133C407.289 202.854 407.443 202.598 407.642 202.38C407.84 202.162 408.078 201.988 408.34 201.868C408.603 201.747 408.885 201.683 409.169 201.68C409.453 201.676 409.733 201.733 409.992 201.848C410.346 201.945 410.661 202.151 410.895 202.439C411.129 202.728 411.273 203.086 411.306 203.466L410.287 203.635C410.268 203.442 410.197 203.261 410.082 203.111C409.968 202.961 409.814 202.848 409.638 202.786C409.365 202.686 409.061 202.705 408.794 202.838C408.526 202.97 408.318 203.206 408.213 203.493C408.109 203.78 408.117 204.095 408.236 204.369C408.356 204.642 408.577 204.852 408.85 204.951C409.025 205.017 409.215 205.029 409.399 204.988C409.583 204.947 409.754 204.853 409.893 204.718L410.565 205.502C410.293 205.767 409.953 205.945 409.59 206.013C409.226 206.081 408.855 206.037 408.522 205.886C408.253 205.809 408.004 205.674 407.79 205.492C407.576 205.309 407.401 205.082 407.277 204.825C407.152 204.567 407.08 204.285 407.065 203.994C407.049 203.703 407.091 203.41 407.188 203.133Z" fill="#263238"/>
<path d="M213.742 271.59C210.77 270.196 208.472 267.681 207.35 264.596C206.229 261.51 206.377 258.106 207.761 255.13L217.903 233.382C218.092 233.148 218.355 232.984 218.648 232.917C218.942 232.849 219.25 232.881 219.523 233.009C219.796 233.136 220.018 233.351 220.155 233.619C220.292 233.887 220.335 234.194 220.278 234.49L210.137 256.238C209.538 257.407 209.181 258.684 209.087 259.994C208.993 261.304 209.164 262.62 209.591 263.862C210.017 265.105 210.689 266.248 211.567 267.225C212.446 268.202 213.512 268.991 214.702 269.546C215.893 270.101 217.183 270.41 218.495 270.456C219.808 270.501 221.116 270.281 222.342 269.808C223.568 269.336 224.686 268.622 225.629 267.708C226.572 266.794 227.321 265.699 227.832 264.489L238.498 241.614C238.537 241.412 238.622 241.222 238.745 241.058C238.869 240.894 239.028 240.76 239.211 240.667C239.394 240.574 239.596 240.523 239.801 240.519C240.006 240.516 240.21 240.559 240.396 240.646C240.582 240.733 240.746 240.861 240.875 241.02C241.005 241.18 241.096 241.367 241.142 241.567C241.188 241.767 241.188 241.975 241.141 242.176C241.095 242.376 241.003 242.562 240.874 242.722L230.207 265.597C228.816 268.572 226.301 270.875 223.214 271.998C220.127 273.122 216.721 272.975 213.742 271.59Z" fill="#263238"/>
<path d="M271.317 251.283L213.97 234.709C210.852 233.808 207.593 235.605 206.692 238.724L182.465 322.55C181.564 325.669 183.361 328.927 186.48 329.828L243.826 346.402C246.945 347.304 250.203 345.506 251.105 342.388L275.332 258.561C276.233 255.443 274.435 252.184 271.317 251.283Z" fill="#1E9CEF"/>
<path opacity="0.6" d="M271.317 251.283L213.97 234.709C210.852 233.808 207.593 235.605 206.692 238.724L182.465 322.55C181.564 325.669 183.361 328.927 186.48 329.828L243.826 346.402C246.945 347.304 250.203 345.506 251.105 342.388L275.332 258.561C276.233 255.443 274.435 252.184 271.317 251.283Z" fill="white"/>
<path opacity="0.2" d="M254.8 294.974L208.584 281.879C207.864 281.675 207.115 282.094 206.911 282.814L206.793 283.231C206.589 283.951 207.007 284.7 207.727 284.904L253.943 297.998C254.663 298.202 255.412 297.784 255.616 297.064L255.734 296.647C255.938 295.927 255.52 295.178 254.8 294.974Z" fill="black"/>
<path opacity="0.2" d="M250.302 306.305L204.222 293.231C203.504 293.028 202.757 293.444 202.554 294.162L202.436 294.578C202.232 295.296 202.649 296.043 203.367 296.247L249.446 309.321C250.164 309.524 250.911 309.108 251.115 308.39L251.233 307.974C251.436 307.256 251.02 306.509 250.302 306.305Z" fill="black"/>
<path opacity="0.2" d="M246.803 318.643L200.724 305.569C200.006 305.366 199.259 305.782 199.055 306.5L198.937 306.916C198.734 307.634 199.15 308.381 199.868 308.585L245.948 321.659C246.666 321.862 247.413 321.446 247.616 320.728L247.734 320.312C247.938 319.594 247.521 318.847 246.803 318.643Z" fill="black"/>
<path d="M268.878 253.513L212.239 234.66C209.159 233.635 205.832 235.301 204.806 238.381L177.249 321.172C176.224 324.252 177.89 327.58 180.97 328.605L237.609 347.457C240.688 348.483 244.016 346.817 245.041 343.737L272.599 260.945C273.624 257.866 271.958 254.538 268.878 253.513Z" fill="#1E9CEF"/>
<path opacity="0.7" d="M268.878 253.513L212.239 234.66C209.159 233.635 205.832 235.301 204.806 238.381L177.249 321.172C176.224 324.252 177.89 327.58 180.97 328.605L237.609 347.457C240.688 348.483 244.016 346.817 245.041 343.737L272.599 260.945C273.624 257.866 271.958 254.538 268.878 253.513Z" fill="white"/>
<path opacity="0.2" d="M249.687 295.496L204.167 280.592C203.457 280.359 202.694 280.746 202.462 281.455L202.328 281.866C202.095 282.575 202.482 283.338 203.191 283.571L248.711 298.475C249.421 298.707 250.184 298.321 250.416 297.612L250.551 297.201C250.783 296.492 250.396 295.728 249.687 295.496Z" fill="black"/>
<path opacity="0.2" d="M245.692 307.672L200.172 292.768C199.462 292.535 198.699 292.922 198.467 293.631L198.333 294.042C198.1 294.751 198.487 295.514 199.196 295.747L244.716 310.651C245.426 310.884 246.189 310.497 246.421 309.788L246.556 309.377C246.788 308.668 246.401 307.905 245.692 307.672Z" fill="black"/>
<path opacity="0.2" d="M241.713 319.84L196.193 304.935C195.484 304.703 194.721 305.09 194.489 305.799L194.354 306.21C194.122 306.919 194.509 307.682 195.218 307.914L240.738 322.819C241.447 323.051 242.21 322.665 242.442 321.956L242.577 321.545C242.809 320.835 242.423 320.072 241.713 319.84Z" fill="black"/>
<path d="M268.106 282.792L237.217 349.355C237.024 349.767 236.676 350.087 236.248 350.242C235.821 350.398 235.349 350.377 234.936 350.185L173.388 321.619C173.183 321.525 172.999 321.392 172.847 321.228C172.694 321.063 172.575 320.869 172.497 320.659C172.42 320.448 172.385 320.224 172.394 319.999C172.403 319.775 172.457 319.554 172.552 319.35L212.748 232.767C212.841 232.562 212.974 232.379 213.139 232.226C213.303 232.073 213.497 231.954 213.708 231.877C213.919 231.799 214.143 231.764 214.367 231.773C214.592 231.782 214.812 231.836 215.016 231.931L256.489 251.181L268.106 282.792Z" fill="#1E9CEF"/>
<g opacity="0.8">
<path d="M268.106 282.792L237.217 349.355C237.024 349.767 236.676 350.087 236.248 350.242C235.821 350.398 235.349 350.377 234.936 350.185L173.388 321.619C173.183 321.525 172.999 321.392 172.847 321.228C172.694 321.063 172.575 320.869 172.497 320.659C172.42 320.448 172.385 320.224 172.394 319.999C172.403 319.775 172.457 319.554 172.552 319.35L212.748 232.767C212.841 232.562 212.974 232.379 213.139 232.226C213.303 232.073 213.497 231.954 213.708 231.877C213.919 231.799 214.143 231.764 214.367 231.773C214.592 231.782 214.812 231.836 215.016 231.931L256.489 251.181L268.106 282.792Z" fill="white"/>
</g>
<path d="M248.216 297.893L204.707 277.862C204.029 277.55 203.226 277.847 202.914 278.525L202.733 278.917C202.421 279.595 202.718 280.398 203.396 280.71L246.905 300.74C247.583 301.052 248.385 300.756 248.697 300.078L248.878 299.685C249.19 299.007 248.893 298.205 248.216 297.893Z" fill="#263238"/>
<path d="M242.783 309.567L199.277 289.529C198.599 289.217 197.797 289.513 197.485 290.191L197.304 290.584C196.992 291.261 197.288 292.064 197.966 292.376L241.471 312.414C242.149 312.726 242.951 312.43 243.264 311.752L243.445 311.359C243.757 310.682 243.46 309.879 242.783 309.567Z" fill="#263238"/>
<path d="M237.497 321.174L193.988 301.144C193.31 300.832 192.508 301.129 192.196 301.806L192.015 302.199C191.703 302.877 192 303.679 192.677 303.992L236.186 324.022C236.864 324.334 237.667 324.037 237.979 323.36L238.16 322.967C238.472 322.289 238.175 321.486 237.497 321.174Z" fill="#263238"/>
<path d="M256.549 251.149L247.195 271.207C247.004 271.618 246.983 272.087 247.136 272.513C247.289 272.939 247.604 273.288 248.013 273.482L268.022 282.813L256.549 251.149Z" fill="#1E9CEF"/>
<path opacity="0.9" d="M256.549 251.149L247.195 271.207C247.004 271.618 246.983 272.087 247.136 272.513C247.289 272.939 247.604 273.288 248.013 273.482L268.022 282.813L256.549 251.149Z" fill="white"/>
<path opacity="0.5" d="M248.216 297.893L204.707 277.862C204.029 277.55 203.226 277.847 202.914 278.525L202.733 278.917C202.421 279.595 202.718 280.398 203.396 280.71L246.905 300.74C247.583 301.052 248.385 300.756 248.697 300.078L248.878 299.685C249.19 299.007 248.893 298.205 248.216 297.893Z" fill="white"/>
<path opacity="0.5" d="M242.783 309.567L199.277 289.529C198.599 289.217 197.797 289.513 197.485 290.191L197.304 290.584C196.992 291.261 197.288 292.064 197.966 292.376L241.471 312.414C242.149 312.726 242.951 312.43 243.264 311.752L243.445 311.359C243.757 310.682 243.46 309.879 242.783 309.567Z" fill="white"/>
<path opacity="0.5" d="M237.497 321.174L193.988 301.144C193.31 300.832 192.508 301.129 192.196 301.806L192.015 302.199C191.703 302.877 192 303.679 192.677 303.992L236.186 324.022C236.864 324.334 237.667 324.037 237.979 323.36L238.16 322.967C238.472 322.289 238.175 321.486 237.497 321.174Z" fill="white"/>
<path d="M233.587 242.171L231.211 241.063L233.113 236.985C233.734 235.475 233.75 233.783 233.156 232.261C232.562 230.739 231.404 229.505 229.924 228.815C228.443 228.124 226.754 228.031 225.206 228.554C223.659 229.077 222.372 230.177 221.614 231.624L220.267 234.514L217.891 233.406L219.239 230.516C220.3 228.454 222.118 226.882 224.312 226.132C226.506 225.381 228.906 225.509 231.008 226.489C233.11 227.469 234.751 229.225 235.586 231.389C236.421 233.552 236.386 235.955 235.489 238.093L233.587 242.171Z" fill="#263238"/>
<path d="M218.426 261.385C217.078 260.753 216.037 259.612 215.529 258.212C215.022 256.813 215.09 255.27 215.719 253.921L224.462 235.173C224.501 234.971 224.585 234.781 224.708 234.617C224.832 234.453 224.991 234.319 225.174 234.226C225.357 234.132 225.559 234.082 225.764 234.078C225.97 234.075 226.173 234.118 226.359 234.205C226.545 234.291 226.709 234.419 226.839 234.579C226.968 234.739 227.059 234.926 227.105 235.126C227.151 235.326 227.151 235.534 227.105 235.734C227.058 235.934 226.967 236.121 226.837 236.281L218.066 255.09C217.868 255.45 217.746 255.847 217.707 256.256C217.669 256.665 217.715 257.077 217.842 257.468C217.97 257.858 218.176 258.219 218.449 258.526C218.721 258.834 219.054 259.082 219.426 259.256C219.799 259.429 220.203 259.525 220.613 259.536C221.024 259.547 221.433 259.473 221.814 259.32C222.195 259.166 222.54 258.936 222.829 258.644C223.118 258.351 223.343 258.003 223.491 257.62L231.765 239.876C231.804 239.674 231.889 239.484 232.012 239.32C232.136 239.156 232.295 239.022 232.478 238.928C232.661 238.835 232.863 238.785 233.068 238.781C233.273 238.777 233.477 238.821 233.663 238.907C233.849 238.994 234.013 239.122 234.142 239.282C234.271 239.442 234.363 239.629 234.409 239.829C234.455 240.029 234.455 240.237 234.408 240.437C234.362 240.637 234.27 240.824 234.141 240.984L225.895 258.666C225.265 260.017 224.124 261.063 222.724 261.572C221.323 262.082 219.777 262.015 218.426 261.385Z" fill="#263238"/>
</g>
<circle cx="172.886" cy="507.022" r="6.83755" transform="rotate(-15 172.886 507.022)" stroke="#9CA3AF"/>
<path d="M12.9425 594.053C28.1392 604.699 36.6616 598.31 48.2616 584.115M173.518 537.734C173.518 537.734 168.258 535.819 158.955 538.312C149.653 540.804 146.108 550.611 140.012 556.208C133.915 561.806 129.497 564.805 119.798 556.96C119.798 556.96 119.798 556.96 106.017 544.509C92.2356 532.059 85.9056 566.907 83.3748 575.181C80.844 583.454 76.5735 594.095 70.3719 595.757C64.1703 597.418 50.401 590.168 48.2616 584.115M48.2616 584.115C53.9822 577.115 56.0103 574.052 53.9712 566.442C51.9322 558.832 45.0353 567.328 45.0569 572.155C45.0785 576.982 45.8668 579.924 48.2616 584.115Z" stroke="#9CA3AF"/>
<g filter="url(#filter1_d_1175_7268)">
<path d="M187.537 36.0889C188.229 36.2126 188.849 36.6188 189.266 37.222C189.684 37.8252 189.866 38.5781 189.774 39.3222C189.639 40.2873 189.504 41.2525 189.45 41.7157L186.383 63.2483C186.305 63.7368 186.055 64.1746 185.683 64.4711C185.312 64.7675 184.849 64.8999 184.389 64.8408L138.328 57.3416C137.89 57.2571 137.497 57.0024 137.224 56.6265C136.951 56.2506 136.817 55.78 136.849 55.3051L139.203 27.4025C139.229 27.1493 139.301 26.904 139.416 26.6808C139.531 26.4577 139.686 26.261 139.872 26.1022C140.058 25.9434 140.272 25.8256 140.501 25.7556C140.73 25.6855 140.969 25.6647 141.206 25.6942L151.625 27.3929C152.607 27.5602 153.504 28.0894 154.16 28.8889L156.027 31.1956L187.537 36.0889Z" fill="#4AB3FF" fill-opacity="0.75"/>
<path d="M190.553 39.5513L140.218 31.3586L135.597 63.8578L185.932 72.0505L190.553 39.5513Z" fill="#F4F4F4"/>
<path d="M135.802 33.6277L134.828 68.1416C134.82 68.4366 134.913 68.7246 135.089 68.9519C135.265 69.1792 135.512 69.3303 135.784 69.377L184.831 77.3588C185.117 77.4015 185.407 77.3253 185.642 77.1457C185.877 76.9661 186.039 76.697 186.094 76.3937L193.383 42.9028C193.418 42.7422 193.423 42.5756 193.396 42.413C193.37 42.2504 193.313 42.0954 193.228 41.9572C193.144 41.8191 193.034 41.7007 192.905 41.6094C192.777 41.5181 192.632 41.4558 192.481 41.4262L137.119 32.4213C136.956 32.3933 136.79 32.4035 136.631 32.4513C136.472 32.4992 136.325 32.5834 136.2 32.6982C136.074 32.813 135.974 32.9556 135.905 33.1161C135.836 33.2766 135.801 33.4512 135.802 33.6277Z" fill="#1E9CEF"/>
</g>
<path d="M289.678 25.3203V14.4688H278.827V10.8516H289.678V0H293.296V10.8516H304.147V14.4688H293.296V25.3203H289.678Z" fill="#D2A2F9"/>
<g filter="url(#filter2_d_1175_7268)">
<path d="M116.801 219.936L83.5404 206.124C82.4452 205.653 81.5664 204.741 81.0925 203.585C80.6186 202.428 80.5874 201.119 81.0055 199.938L98.912 150.715C99.1236 150.13 99.4408 149.596 99.8456 149.143C100.25 148.689 100.735 148.326 101.271 148.073C101.807 147.82 102.385 147.683 102.971 147.669C103.557 147.656 104.139 147.766 104.685 147.993L125.785 156.776L135.564 181.513L122.583 217.224C122.143 218.395 121.29 219.336 120.209 219.843C119.128 220.35 117.904 220.383 116.801 219.936Z" fill="#F8F8F8"/>
<path d="M125.786 156.718L120.743 170.578C120.539 171.124 120.438 171.708 120.447 172.295C120.456 172.883 120.574 173.463 120.793 174.002C121.013 174.541 121.331 175.027 121.728 175.434C122.125 175.84 122.594 176.158 123.106 176.369L135.564 181.552L125.786 156.718Z" fill="#D0D0D0"/>
<path d="M118.154 168.85C118.091 169.034 114.6 167.74 110.351 165.955C106.102 164.169 102.711 162.606 102.774 162.432C102.837 162.258 106.337 163.542 110.586 165.327C114.835 167.113 118.263 168.676 118.154 168.85Z" fill="#524242"/>
<path d="M125.244 180.828C125.181 181.001 119.462 178.791 112.471 175.876C105.479 172.962 99.8414 170.462 99.9226 170.288C100.004 170.114 105.705 172.344 112.705 175.239C119.706 178.135 125.308 180.644 125.244 180.828Z" fill="#524242"/>
<path d="M125.146 188.317C125.082 188.501 118.831 186.068 111.226 182.893C103.622 179.718 97.5144 177.006 97.5144 176.832C97.5144 176.658 103.829 179.081 111.434 182.256C119.038 185.431 125.209 188.144 125.146 188.317Z" fill="#524242"/>
<path d="M122.899 194.542C122.836 194.716 116.584 192.294 108.979 189.118C101.375 185.943 95.2315 183.231 95.2947 183.047C95.3578 182.864 101.609 185.306 109.214 188.472C116.819 191.637 122.971 194.311 122.899 194.542Z" fill="#524242"/>
<path d="M120.662 200.671C120.59 200.845 114.347 198.422 106.743 195.247C99.1379 192.072 92.9856 189.36 93.0487 189.176C93.1118 188.993 99.3634 191.425 106.977 194.6C114.591 197.776 120.725 200.488 120.662 200.671Z" fill="#524242"/>
<path d="M118.416 206.839C118.344 207.022 112.101 204.59 104.496 201.424C96.8918 198.258 90.7395 195.508 90.8117 195.353C90.8838 195.199 97.1263 197.602 104.731 200.777C112.336 203.953 118.479 206.665 118.416 206.839Z" fill="#524242"/>
</g>
<path d="M349.835 108.659L356.4 101.854L349.596 95.289L351.784 93.0208L358.589 99.5861L365.154 92.7815L367.422 94.97L360.857 101.775L367.661 108.34L365.473 110.608L358.668 104.043L352.103 110.847L349.835 108.659Z" fill="#6F97FF"/>
<path d="M428.175 378.44V367.588H417.323V363.971H428.175V353.119H431.792V363.971H442.643V367.588H431.792V378.44H428.175Z" fill="#D2A2F9"/>
<path d="M74.5511 260.832C71.0506 260.832 68.2211 263.661 68.2211 267.162C68.2211 270.662 71.0506 273.492 74.5511 273.492C78.0517 273.492 80.8812 270.662 80.8812 267.162C80.8812 263.661 78.0517 260.832 74.5511 260.832Z" fill="#5A6BFF"/>
<defs>
<filter id="filter0_d_1175_7268" x="122.989" y="105.064" width="308.94" height="330.217" filterUnits="userSpaceOnUse" color-interpolation-filters="sRGB">
<feFlood flood-opacity="0" result="BackgroundImageFix"/>
<feColorMatrix in="SourceAlpha" type="matrix" values="0 0 0 0 0 0 0 0 0 0 0 0 0 0 0 0 0 0 127 0" result="hardAlpha"/>
<feOffset dy="4"/>
<feGaussianBlur stdDeviation="2"/>
<feComposite in2="hardAlpha" operator="out"/>
<feColorMatrix type="matrix" values="0 0 0 0 0 0 0 0 0 0 0 0 0 0 0 0 0 0 0.25 0"/>
<feBlend mode="normal" in2="BackgroundImageFix" result="effect1_dropShadow_1175_7268"/>
<feBlend mode="normal" in="SourceGraphic" in2="effect1_dropShadow_1175_7268" result="shape"/>
</filter>
<filter id="filter1_d_1175_7268" x="130.827" y="25.6812" width="66.5859" height="59.6892" filterUnits="userSpaceOnUse" color-interpolation-filters="sRGB">
<feFlood flood-opacity="0" result="BackgroundImageFix"/>
<feColorMatrix in="SourceAlpha" type="matrix" values="0 0 0 0 0 0 0 0 0 0 0 0 0 0 0 0 0 0 127 0" result="hardAlpha"/>
<feOffset dy="4"/>
<feGaussianBlur stdDeviation="2"/>
<feComposite in2="hardAlpha" operator="out"/>
<feColorMatrix type="matrix" values="0 0 0 0 0 0 0 0 0 0 0 0 0 0 0 0 0 0 0.25 0"/>
<feBlend mode="normal" in2="BackgroundImageFix" result="effect1_dropShadow_1175_7268"/>
<feBlend mode="normal" in="SourceGraphic" in2="effect1_dropShadow_1175_7268" result="shape"/>
</filter>
<filter id="filter2_d_1175_7268" x="76.713" y="147.668" width="62.8512" height="80.5806" filterUnits="userSpaceOnUse" color-interpolation-filters="sRGB">
<feFlood flood-opacity="0" result="BackgroundImageFix"/>
<feColorMatrix in="SourceAlpha" type="matrix" values="0 0 0 0 0 0 0 0 0 0 0 0 0 0 0 0 0 0 127 0" result="hardAlpha"/>
<feOffset dy="4"/>
<feGaussianBlur stdDeviation="2"/>
<feComposite in2="hardAlpha" operator="out"/>
<feColorMatrix type="matrix" values="0 0 0 0 0 0 0 0 0 0 0 0 0 0 0 0 0 0 0.25 0"/>
<feBlend mode="normal" in2="BackgroundImageFix" result="effect1_dropShadow_1175_7268"/>
<feBlend mode="normal" in="SourceGraphic" in2="effect1_dropShadow_1175_7268" result="shape"/>
</filter>
</defs>
</svg>
