<svg width="114" height="314" viewBox="0 0 114 314" fill="none" xmlns="http://www.w3.org/2000/svg">
<path d="M18.7875 280.669C18.604 280.617 18.4175 280.715 18.3483 280.892L6.34014 311.348C11.8311 304.14 17.9292 302.065 17.9292 302.065L24.8685 282.826C24.9505 282.608 24.8246 282.361 24.5997 282.297L18.7874 280.675L18.7875 280.669ZM16.0468 299.841C14.9914 300.206 13.8252 299.604 13.4434 298.501C13.0617 297.397 13.6047 296.2 14.6601 295.835C15.7155 295.47 16.8817 296.072 17.2635 297.175C17.6452 298.279 17.1022 299.476 16.0468 299.841Z" fill="white" fill-opacity="0.15"/>
<path d="M112.575 49.4054C115.407 29.2886 103.011 2.01863 103.011 2.01863C99.9694 4.84836 87.8265 24.955 87.8265 24.955C82.7592 31.5466 70.5157 57.6046 70.5157 57.6046C67.6147 62.521 57.1788 91.2482 57.1788 91.2482C51.0995 83.8876 56.3741 73.9307 56.3741 73.9307C38.4721 91.8689 34.2086 108.985 34.2086 108.985C27.5989 125.272 31.9303 145.325 31.9303 145.325C21.6799 143.55 21.1644 127.215 21.1644 127.215C15.9988 133.948 13.5446 166.462 13.5446 166.462C9.69762 192.695 19.545 215.161 19.545 215.161C7.64312 213.215 2.80584 197.141 2.80584 197.141C-0.86856 211.996 16.5616 236.823 16.5616 236.823C23.3599 246.812 27.7389 256.613 27.7389 256.613C24.1934 261.891 20.196 275.679 19.3148 278.816C19.2121 279.171 19.4247 279.539 19.7738 279.641L24.8211 281.122C25.1465 281.218 25.478 281.023 25.5744 280.686C29.2 267.878 36.2876 260.335 36.2876 260.335C38.9277 257.074 70.2248 240.851 70.2248 240.851C82.8185 233.91 86.9289 221.554 86.9289 221.554C73.9859 229.82 65.7527 228.666 65.7527 228.666C70.8008 225.836 80.1036 212.576 84.6224 206.306C89.1413 200.031 98.1747 178.585 98.1747 178.585C93.5672 182.549 86.4711 184.812 86.4711 184.812C80.0153 187.766 82.3915 184.881 82.3915 184.881C96.2361 170.513 103.188 152.667 103.188 152.667C112.917 127.277 109.357 115.028 109.357 115.028C102.236 123.053 90.2196 128.559 90.2196 128.559C110.046 107.69 112.582 49.3937 112.582 49.3937L112.575 49.4054ZM74.148 113.351C74.148 113.351 67.6547 161.646 67.0019 170.366C67.0019 170.366 58.3228 221.836 36.0207 241.504C36.0207 241.504 58.5087 204.409 62.9075 169.727L70.7523 111.184C70.7523 111.184 73.112 86.0329 87.0563 62.0585C87.0563 62.0585 76.3735 90.3518 74.148 113.351Z" fill="white" fill-opacity="0.15"/>
</svg>
